# xmcd
#
# Track frame offsets:
#	182
#	14910
#	27837
#	43287
#	55120
#	65755
#	92772
#	107707
#	122750
#	134882
#	147067
#	162915
#
# Disc length: 2416 seconds
#
# Revision: 3
# Processed by: cddbd v1.5.2PL0 Copyright (c) Steve Scherf et al.
# Submitted via: dBpowerAMP V4.0
#
DISCID=b4096e0c
DTITLE=Boxcar Willie - Truck Driving Favorites
DYEAR=1991
DGENRE=Country
TTITLE0=Freightline Fever
TTITLE1=Truckdrivin' Man
TTITLE2=Phantom 309
TTITLE3=Truck Drivin' Son-Of-A-Gun
TTITLE4=Six Days On The Road
TTITLE5=Teddy Bear
TTITLE6=Whiteline Fever
TTITLE7=Girl On A Billboard
TTITLE8=How Fast Them Trucks Will Go
TTITLE9=Truckers Prayer
TTITLE10=Forty Acres
TTITLE11=Convoy
EXTD=
EXTT0=
EXTT1=
EXTT2=
EXTT3=
EXTT4=
EXTT5=
EXTT6=
EXTT7=
EXTT8=
EXTT9=
EXTT10=
EXTT11=
PLAYORDER=
